<svg height="479pt" viewBox="0 -24 479.99829 479" width="479pt" xmlns="http://www.w3.org/2000/svg" xmlns:xlink="http://www.w3.org/1999/xlink"><linearGradient id="a" gradientUnits="userSpaceOnUse" x1="52.496" x2="416.768" y1="386.227145" y2="21.955145"><stop offset="0" stop-color="#41dfd0"/><stop offset="1" stop-color="#ee83ef"/></linearGradient><path d="m32 32.5h16v16h-16zm32 16h16v-16h-16zm32 0h16v-16h-16zm294.296875 216c0 48.601562-39.398437 88-88 88s-88-39.398438-88-88 39.398437-88 88-88c48.578125.050781 87.945313 39.421875 88 88zm-16 0c0-39.765625-32.238281-72-72-72-39.765625 0-72 32.234375-72 72 0 39.761719 32.234375 72 72 72 39.746094-.046875 71.953125-32.253906 72-72zm103.359375 118.800781c3.121094 3.121094 3.121094 8.1875 0 11.308594l-33.9375 33.9375c-3.121094 3.125-8.1875 3.125-11.3125 0l-64-64c-46.007812 30.574219-106.984375 25.589844-147.421875-12.046875h-188.984375c-17.671875 0-32-14.328125-32-32v-312c0-4.417969 3.582031-8 8-8h384c4.417969 0 8 3.582031 8 8v186.574219c25.382812 35.386719 29.402344 81.8125 10.472656 121.03125zm-461.65625-318.800781h368v-48h-368zm16 272h174.519531c-14.089843-18.660156-22.378906-41.054688-23.839843-64.394531-2.214844.175781-4.433594.394531-6.679688.394531-39.59375.101562-73.304688-28.773438-79.289062-67.910156-5.980469-39.140625 17.5625-76.765625 55.378906-88.5 37.816406-11.730469 78.523437 5.964844 95.742187 41.617187 44.867188-23.078125 99.40625-15.40625 136.167969 19.152344v-96.359375h-368v240c0 8.835938 7.164062 16 16 16zm157.296875-112h-33.90625c2.042969 9.84375 5.074219 19.460938 9.050781 28.695312l1.023438 2.359376c3.480468.609374 7.003906.921874 10.535156.945312 2.246094-.015625 4.488281-.148438 6.71875-.402344.746094-10.78125 2.960938-21.414062 6.578125-31.597656zm-13.296875-96c-3.589844.019531-7.167969.34375-10.703125.96875l-.609375 1.375c-4.171875 9.527344-7.328125 19.46875-9.421875 29.65625h41.4375c-2.136719-10.425781-5.386719-20.59375-9.6875-30.328125l-.3125-.703125c-3.535156-.625-7.113281-.945312-10.703125-.96875zm37.007812 32h18.34375c-5.875-10.148438-14.441406-18.476562-24.75-24.066406 2.726563 7.851562 4.871094 15.898437 6.40625 24.066406zm-13.808593 16h-46.398438c-1.058593 10.640625-1.039062 21.363281.0625 32h43.375c1.105469-2.097656 2.347657-4.105469 3.570313-6.121094l.191406-6.589844c.125-6.441406-.140625-12.882812-.800781-19.289062zm-85.09375 32h22.695312c-.980469-10.644531-.980469-21.355469 0-32h-22.695312c-2.808594 10.480469-2.808594 21.515625 0 32zm31.496093-72.304688c-10.390624 5.65625-19.019531 14.066407-24.945312 24.304688h18.398438c1.5625-8.257812 3.75-16.378906 6.546874-24.304688zm-24.945312 88.304688c5.964844 10.296875 14.667969 18.746094 25.144531 24.398438-2.84375-7.949219-5.074219-16.109376-6.671875-24.398438zm100.328125-48h-5.726563c.15625 1.742188.246094 3.496094.359376 5.238281 1.726562-1.808593 3.527343-3.535156 5.367187-5.238281zm81.3125 192c39.78125.0625 76.101563-22.613281 93.519531-58.378906 17.417969-35.765625 12.867188-78.34375-11.710937-109.621094h-.105469v-.136719c-30.011719-38.226562-82.507812-50.550781-126.394531-29.675781-43.890625 20.871094-67.457031 69.371094-56.75 116.773438 10.710937 47.40625 52.839843 81.0625 101.441406 81.039062zm158.398437 20.457031-58.34375-58.347656c-5.953124 8.933594-13.070312 17.035156-21.160156 24.089844l56.878906 56.878906zm0 0" fill="url(#a)"/></svg>